<svg width="18" height="18" viewBox="0 0 18 18" fill="none" xmlns="http://www.w3.org/2000/svg">
<path d="M9 2V1V1V2ZM15.5 8.16602L16.5 8.16608V8.16602H15.5ZM9.38184 15.9141L9.82428 16.8109L9.82429 16.8109L9.38184 15.9141ZM8.61816 15.9141L8.17571 16.8109L8.17572 16.8109L8.61816 15.9141ZM2.5 8.16602H1.5V8.16608L2.5 8.16602ZM9 5.52344V4.52344H8.99998L9 5.52344ZM6.21484 8.16602H5.21484V8.16615L6.21484 8.16602ZM9 10.8076L8.99998 11.8076H9V10.8076ZM11.7861 8.16602L12.7861 8.16615V8.16602H11.7861ZM9 2V3C12.0879 3 14.5 5.36214 14.5 8.16602H15.5H16.5C16.5 4.15951 13.0918 1 9 1V2ZM15.5 8.16602L14.5 8.16595C14.4999 9.98742 13.5251 11.5092 12.2708 12.7127C11.0202 13.9126 9.59265 14.695 8.93938 15.0173L9.38184 15.9141L9.82429 16.8109C10.5637 16.446 12.1952 15.5569 13.6554 14.1559C15.1119 12.7584 16.4998 10.7498 16.5 8.16608L15.5 8.16602ZM9.38184 15.9141L8.93939 15.0173C8.95378 15.0102 8.97493 15.0041 9 15.0041C9.02507 15.0041 9.04622 15.0102 9.06061 15.0173L8.61816 15.9141L8.17572 16.8109C8.69802 17.0685 9.30198 17.0685 9.82428 16.8109L9.38184 15.9141ZM8.61816 15.9141L9.06062 15.0173C8.40735 14.695 6.97985 13.9126 5.72925 12.7127C4.47492 11.5092 3.50011 9.98742 3.5 8.16595L2.5 8.16602L1.5 8.16608C1.50016 10.7498 2.88808 12.7584 4.34459 14.1559C5.80483 15.5569 7.43627 16.446 8.17571 16.8109L8.61816 15.9141ZM2.5 8.16602H3.5C3.5 5.36214 5.9121 3 9 3V2V1C4.9082 1 1.5 4.15951 1.5 8.16602H2.5ZM9 5.52344L8.99998 4.52344C6.95933 4.52348 5.21484 6.10559 5.21484 8.16602H6.21484H7.21484C7.21484 7.30775 7.96372 6.52346 9.00002 6.52344L9 5.52344ZM6.21484 8.16602L5.21484 8.16615C5.21513 10.2266 6.9598 11.8076 8.99998 11.8076L9 10.8076L9.00002 9.80762C7.9635 9.80759 7.21496 9.02375 7.21484 8.16588L6.21484 8.16602ZM9 10.8076V11.8076C11.0398 11.8076 12.7858 10.2271 12.7861 8.16615L11.7861 8.16602L10.7861 8.16588C10.786 9.02335 10.037 9.80762 9 9.80762V10.8076ZM11.7861 8.16602H12.7861C12.7861 6.10515 11.0403 4.52344 9 4.52344V5.52344V6.52344C10.0368 6.52344 10.7861 7.30815 10.7861 8.16602H11.7861Z" fill="#99A1AF"/>
</svg>
