<svg width="15" height="13" viewBox="0 0 15 13" fill="none" xmlns="http://www.w3.org/2000/svg">
<path d="M7.5 4.43753V7.18752M1.94889 8.69988C1.28648 9.78281 0.955361 10.3245 1.00484 10.7688C1.04799 11.1563 1.26349 11.5084 1.5975 11.7375C1.98031 12 2.64232 12 3.96626 12H11.0337C12.3577 12 13.0196 12 13.4024 11.7375C13.7364 11.5084 13.952 11.1563 13.9952 10.7688C14.0446 10.3245 13.7136 9.78281 13.0512 8.69988L9.51871 2.9249C8.85629 1.84196 8.52494 1.30059 8.09253 1.11887C7.71536 0.960375 7.2844 0.960375 6.90723 1.11887C6.475 1.30051 6.14385 1.84189 5.48198 2.92393L1.94889 8.69988ZM7.53699 9.25001V9.31876L7.46372 9.31889V9.25001H7.53699Z" stroke="#FF6900" stroke-width="2" stroke-linecap="round" stroke-linejoin="round"/>
</svg>
