<svg width="18" height="18" viewBox="0 0 18 18" fill="none" xmlns="http://www.w3.org/2000/svg">
<path d="M10.5 10.9167L7.5 13.7501L10.5 16.5834" stroke="#FEFEFE" stroke-width="2" stroke-linecap="round"/>
<path d="M13.5466 6.31266C14.0074 7.06642 14.25 7.92146 14.25 8.79183C14.25 9.6622 14.0074 10.5172 13.5466 11.271C13.0858 12.0248 12.4231 12.6507 11.625 13.0859C10.8269 13.5211 9.92157 13.7502 9 13.7502" stroke="#FEFEFE" stroke-width="2" stroke-linecap="round"/>
<path d="M6.5353 6.66675L9.96387 3.83341L6.5353 1.00008" stroke="#FEFEFE" stroke-width="2" stroke-linecap="round"/>
<path d="M3.05385 11.2711C2.52724 10.5173 2.25 9.66228 2.25 8.79191C2.25 7.92154 2.52724 7.06651 3.05385 6.31274C3.58046 5.55898 4.33788 4.93305 5.25 4.49787C6.16212 4.06268 7.19678 3.83358 8.25 3.83358" stroke="#FEFEFE" stroke-width="2" stroke-linecap="round"/>
</svg>
