<svg width="17" height="17" viewBox="0 0 17 17" fill="none" xmlns="http://www.w3.org/2000/svg">
<path d="M10.625 6.375L14.2679 6.375C14.3674 6.375 14.4172 6.375 14.4588 6.36794C14.6682 6.33234 14.8323 6.16824 14.8679 5.95875C14.875 5.91717 14.875 5.8674 14.875 5.76786L14.875 4.25C14.875 3.0764 13.9236 2.12501 12.75 2.12501L6.125 2.12501C4.23938 2.12501 3.29657 2.12501 2.71079 2.71079C2.125 3.29658 2.125 4.23939 2.125 6.12501L2.125 14.875L4.25 14.1667L6.375 14.875L8.5 14.1667L10.625 14.875L10.625 6.375ZM12.75 2.12501C11.5764 2.12501 10.625 3.0764 10.625 4.25001L10.625 6.375" stroke="#6A7282" stroke-width="1.5"/>
<path d="M4.9585 4.95825L7.79183 4.95825" stroke="#6A7282" stroke-width="1.5" stroke-linecap="round"/>
<path d="M5.6665 7.79175H4.95817" stroke="#6A7282" stroke-width="1.5" stroke-linecap="round"/>
<path d="M4.9585 10.625L7.0835 10.625" stroke="#6A7282" stroke-width="1.5" stroke-linecap="round"/>
</svg>
