<svg width="11" height="20" viewBox="0 0 11 20" fill="none" xmlns="http://www.w3.org/2000/svg">
<path d="M7.01144 10L0.461833 3.00449C0.153946 2.67564 1.42616e-06 2.2571 1.47059e-06 1.74888C1.51502e-06 1.24066 0.153946 0.822127 0.461834 0.493278C0.769721 0.164429 1.16158 1.42754e-06 1.6374 1.46914e-06C2.11323 1.51074e-06 2.50509 0.164429 2.81297 0.493278L10.5381 8.7444C10.7061 8.92377 10.8248 9.11809 10.8942 9.32736C10.9636 9.53662 10.9989 9.76084 11 10C11.0011 10.2392 10.9658 10.4634 10.8942 10.6726C10.8225 10.8819 10.7038 11.0762 10.5381 11.2556L2.81297 19.5067C2.50508 19.8356 2.11323 20 1.6374 20C1.16158 20 0.769719 19.8356 0.461832 19.5067C0.153945 19.1779 -1.65151e-08 18.7593 2.7915e-08 18.2511C7.23451e-08 17.7429 0.153945 17.3244 0.461832 16.9955L7.01144 10Z" fill="currentColor"/>
</svg>
